<svg width="220" height="42" viewBox="0 0 220 42" fill="none" xmlns="http://www.w3.org/2000/svg">
<path d="M165.099 4.85206C165.586 3.57282 166.812 2.72726 168.181 2.72726C170.499 2.72726 172.094 5.05679 171.254 7.21808L159.319 37.9588C158.501 40.0658 156.473 41.4541 154.212 41.4541H152.461C149.876 41.4541 147.608 39.7329 146.913 37.244L138.549 7.30148C137.907 5.00357 139.635 2.72726 142.021 2.72726C143.658 2.72726 145.089 3.83044 145.506 5.41346L153.195 34.5992C153.27 34.8831 153.665 34.904 153.769 34.6297L165.099 4.85206Z" fill="#181615"/>
<path d="M184.522 41.945C181.54 41.945 178.958 41.3996 176.776 40.3087C174.631 39.1814 172.977 37.5814 171.813 35.5087C170.649 33.436 170.067 30.9633 170.067 28.0906C170.067 25.2179 170.667 22.6907 171.867 20.5089C173.067 18.2907 174.686 16.5635 176.722 15.3271C178.795 14.0908 181.14 13.4726 183.758 13.4726C188.013 13.4726 191.14 14.9271 193.14 17.8362C195.176 20.7089 195.885 24.6907 195.267 29.7815H176.831C176.976 31.7088 177.758 33.2542 179.176 34.4178C180.595 35.5815 182.54 36.1633 185.013 36.1633C186.176 36.1633 187.34 35.9087 188.504 35.3996C188.75 35.295 188.989 35.1789 189.22 35.0512C190.66 34.2563 192.576 34.0868 193.731 35.258C194.702 36.2423 194.807 37.8242 193.767 38.7351C192.907 39.4885 191.953 40.1221 190.904 40.6359C189.158 41.5087 187.031 41.945 184.522 41.945ZM183.867 18.4907C182.013 18.4907 180.486 19.0725 179.286 20.2362C178.086 21.3998 177.322 22.9634 176.995 24.927H189.54C189.613 22.6725 189.122 21.0362 188.067 20.018C187.013 18.9998 185.613 18.4907 183.867 18.4907Z" fill="#181615"/>
<path d="M211.853 41.945C208.544 41.945 205.963 41.0359 204.108 39.2178C202.29 37.3996 201.399 35.0178 201.435 32.0724L201.654 19.4725H199.745C198.208 19.4725 196.963 18.2271 196.963 16.6907C196.963 15.1544 198.208 13.909 199.745 13.909H201.763L201.786 11.5154C201.803 9.69932 203.28 8.2363 205.096 8.2363C206.95 8.2363 208.442 9.75774 208.407 11.6109L208.363 13.909H214.581C216.117 13.909 217.363 15.1544 217.363 16.6907C217.363 18.2271 216.117 19.4725 214.581 19.4725H208.308L208.144 31.3633C208.108 32.8542 208.472 34.036 209.235 34.9087C210.035 35.7451 211.217 36.1633 212.781 36.1633C213.617 36.1633 214.399 36.0542 215.126 35.836C216.381 35.4595 217.878 35.8388 218.346 37.0624L218.695 37.9739C219.107 39.0484 218.815 40.3047 217.778 40.8023C217.287 41.0378 216.748 41.2369 216.163 41.3996C214.853 41.7632 213.417 41.945 211.853 41.945Z" fill="#181615"/>
<path d="M64.2357 41.3995C61.6175 41.3995 59.6357 40.6905 58.2903 39.2723C56.9448 37.8541 56.2721 35.836 56.2721 33.2178V3.87268C56.2721 2.03509 57.7618 0.545441 59.5994 0.545441C61.4369 0.545441 62.9266 2.0351 62.9266 3.87268V32.6724C62.9266 34.636 63.8357 35.6178 65.6538 35.6178C66.9382 35.6178 68.4491 36.1358 68.8593 37.3529L69.0969 38.0578C69.451 39.1081 69.0884 40.2883 68.0495 40.6746C67.8273 40.7572 67.5924 40.8353 67.3447 40.9086C66.3629 41.2359 65.3266 41.3995 64.2357 41.3995Z" fill="#FF5233"/>
<path d="M74.9806 13.3635C76.8182 13.3635 78.3078 14.8531 78.3078 16.6907V37.5814C78.3078 39.419 76.8182 40.9086 74.9806 40.9086C73.143 40.9086 71.6533 39.419 71.6533 37.5814V16.6907C71.6533 14.8531 73.143 13.3635 74.9806 13.3635ZM74.9806 8.99989C73.6715 8.99989 72.6351 8.5999 71.8715 7.7999C71.1079 6.99991 70.7261 6.03629 70.7261 4.90903C70.7261 3.78177 71.1079 2.81814 71.8715 2.01815C72.6351 1.21816 73.6715 0.818165 74.9806 0.818165C76.2896 0.818165 77.326 1.21816 78.0896 2.01815C78.8533 2.81814 79.2351 3.78177 79.2351 4.90903C79.2351 6.03629 78.8533 6.99991 78.0896 7.7999C77.326 8.5999 76.2896 8.99989 74.9806 8.99989Z" fill="#FF5233"/>
<path d="M97.1232 41.3995C92.9415 41.3995 89.6324 40.1996 87.1961 37.7996C84.7597 35.3632 83.5416 31.9815 83.5416 27.6542C83.5416 24.7452 84.1416 22.1816 85.3415 19.9634C86.5415 17.7453 88.2142 16.018 90.3597 14.7816C92.5051 13.5453 94.9778 12.9271 97.7778 12.9271C100.105 12.9271 102.141 13.3817 103.887 14.2907C104.914 14.8256 105.827 15.5366 106.628 16.4239C107.629 17.5342 107.252 19.2196 106.061 20.1234C104.64 21.201 102.665 20.6444 101.14 19.7202C101.092 19.6913 101.044 19.6632 100.996 19.6361C100.123 19.1271 99.0505 18.8725 97.7778 18.8725C95.6323 18.8725 93.8687 19.6725 92.4869 21.2725C91.1415 22.8725 90.4688 24.9815 90.4688 27.5997C90.4688 30.1451 91.0687 32.1087 92.2687 33.4905C93.5051 34.836 95.2687 35.5087 97.5596 35.5087C98.7596 35.5087 99.8687 35.236 100.887 34.6905C100.993 34.6354 101.098 34.577 101.201 34.5156C102.722 33.6069 104.74 33.115 106.124 34.2218C107.275 35.1432 107.591 36.8162 106.576 37.8864C105.659 38.8537 104.617 39.6066 103.45 40.145C101.56 40.9814 99.4505 41.3995 97.1232 41.3995Z" fill="#FF5233"/>
<path d="M114.532 40.9086C112.694 40.9086 111.205 39.419 111.205 37.5814V3.87268C111.205 2.0351 112.694 0.545441 114.532 0.545441C116.37 0.545441 117.859 2.0351 117.859 3.87268V24.6543L129.739 12.4686C130.281 11.9131 131.024 11.5999 131.8 11.5999C134.343 11.5999 135.636 14.6573 133.864 16.4817L124.338 26.2914C124.149 26.4865 124.19 26.8069 124.41 26.9672C125.063 27.4436 125.643 28.0544 126.15 28.7997L128.986 33.0542C130.186 34.8723 131.786 35.7814 133.786 35.7814C135.344 35.7814 137.113 36.4177 137.575 37.9049L137.617 38.039C137.963 39.1514 137.528 40.3994 136.431 40.7922C136.117 40.9046 135.799 40.9979 135.477 41.0723C134.568 41.2905 133.586 41.3995 132.532 41.3995C130.495 41.3632 128.768 40.9632 127.35 40.1996C125.968 39.4359 124.696 38.1632 123.532 36.3814L120.641 32.1269C119.659 30.5997 118.732 29.5633 117.859 29.0179V37.5814C117.859 39.419 116.37 40.9086 114.532 40.9086Z" fill="#FF5233"/>
<path d="M51.5422 30.7844C52.9559 31.8489 53.3629 33.8458 52.1729 35.1557C50.8322 36.6313 49.2238 37.8382 47.3478 38.7762C44.5048 40.1978 41.3161 40.9086 37.7816 40.9086C33.594 40.9086 30.0018 40.123 27.0052 38.5518C24.0085 36.9805 21.7034 34.7359 20.0898 31.8178C18.5146 28.8624 17.7271 25.3458 17.7271 21.268C17.7271 17.0406 18.6107 13.3369 20.3779 10.157C22.1452 6.9771 24.604 4.48929 27.7543 2.69357C30.9047 0.897857 34.5544 0 38.7036 0C42.2381 0 45.254 0.654687 47.7512 1.96406C49.3821 2.80623 50.8381 3.92696 52.1194 5.32627C53.3491 6.66935 52.9158 8.73586 51.4247 9.78126C49.7694 10.9418 47.5148 10.3268 45.9754 9.01645C45.4402 8.56081 44.8603 8.17408 44.2359 7.85625C42.5455 6.99581 40.6822 6.56558 38.646 6.56558C36.0335 6.56558 33.7284 7.18286 31.7307 8.41741C29.7329 9.65197 28.1577 11.3729 27.0052 13.5801C25.891 15.7499 25.3339 18.2751 25.3339 21.1558C25.3339 25.3084 26.4289 28.5444 28.6187 30.8639C30.847 33.1833 33.9397 34.3431 37.8968 34.3431C40.0867 34.3431 42.1037 33.8567 43.9478 32.884C44.6936 32.4907 45.3829 32.0147 46.0156 31.4561C47.5628 30.09 49.8933 29.543 51.5422 30.7844Z" fill="#FF5233"/>
<ellipse cx="13.8132" cy="37.1897" rx="3.71897" ry="5.31281" transform="rotate(-90 13.8132 37.1897)" fill="#FF5233"/>
<ellipse cx="13.8132" cy="3.71899" rx="3.71897" ry="5.31281" transform="rotate(-90 13.8132 3.71899)" fill="#FF5233"/>
<ellipse cx="7.58973" cy="26.5641" rx="5.31281" ry="7.58973" transform="rotate(-90 7.58973 26.5641)" fill="#FF5233"/>
<ellipse cx="7.58973" cy="14.3446" rx="5.31281" ry="7.58973" transform="rotate(-90 7.58973 14.3446)" fill="#FF5233"/>
</svg>
